<svg xmlns="http://www.w3.org/2000/svg" xml:space="preserve" width="30" height="30" fill="none" viewBox="0 0 512 512">
  <circle cx="256" cy="256" r="256" fill="#27b43e"/>
  <g fill="#fff">
    <path d="M248.837 108.447c-78.029 3.712-139.604 68.696-139.369 146.811.072 23.792 5.816 46.249 15.95 66.095l-15.557 75.514c-.841 4.086 2.843 7.663 6.901 6.701l73.995-17.53c19.011 9.471 40.364 14.939 62.962 15.284 79.753 1.219 146.251-62.105 148.74-141.829 2.662-85.458-67.868-155.131-153.622-151.046zm88.293 227.489c-21.669 21.669-50.483 33.604-81.13 33.604-17.944 0-35.126-4.027-51.066-11.966l-10.302-5.134-45.37 10.747 9.549-46.356-5.075-9.943c-8.276-16.206-12.472-33.728-12.472-52.084 0-30.648 11.935-59.459 33.604-81.13 21.476-21.478 50.759-33.604 81.134-33.604 30.644 0 59.458 11.935 81.127 33.604 21.669 21.669 33.604 50.483 33.604 81.127.002 30.376-12.126 59.658-33.603 81.135z"/>
    <path d="m327.115 286.582-28.384-8.149a10.585 10.585 0 0 0-10.468 2.76l-6.942 7.07c-2.926 2.984-7.366 3.941-11.24 2.374-13.427-5.434-41.672-30.548-48.881-43.106-2.084-3.624-1.739-8.152.817-11.462l6.058-7.839a10.58 10.58 0 0 0 1.305-10.747l-11.941-27.008c-2.86-6.468-11.126-8.352-16.527-3.784-7.921 6.701-17.32 16.88-18.461 28.16-2.015 19.887 6.515 44.954 38.762 75.055 37.257 34.778 67.094 39.369 86.523 34.664 11.019-2.667 19.825-13.365 25.379-22.126 3.791-5.977.795-13.909-6-15.862z"/>
  </g>
  <g fill="#fff">
    <path d="m356.004 147.708-22.223 22.778a115.641 115.641 0 0 1 3.351 3.191c21.67 21.669 33.604 50.483 33.604 81.127 0 30.375-12.128 59.656-33.604 81.134-21.669 21.669-50.483 33.604-81.13 33.604-17.944 0-35.125-4.027-51.066-11.966l-10.302-5.134-45.37 10.747.938-4.553-40.174 41.172c.886 2.663 3.705 4.475 6.734 3.758l73.995-17.53c19.011 9.471 40.364 14.939 62.962 15.284 79.753 1.219 146.253-62.105 148.74-141.829 1.375-44.134-16.773-84.056-46.455-111.783z"/>
    <path d="m327.115 286.582-28.384-8.149a10.585 10.585 0 0 0-10.468 2.76l-6.942 7.07c-2.926 2.984-7.366 3.941-11.24 2.374-7.756-3.139-20.451-12.845-31.185-22.904l-19.732 20.225c.677.648 1.352 1.295 2.05 1.948 37.257 34.778 67.094 39.369 86.523 34.664 11.019-2.667 19.825-13.365 25.379-22.126 3.79-5.977.794-13.909-6.001-15.862z"/>
  </g>
</svg>
