<svg xmlns="http://www.w3.org/2000/svg" xml:space="preserve" width="30" height="30" viewBox="0 0 512 512">
  <circle cx="256" cy="256" r="256" style="fill:#a81411"/>
  <path d="M341.649 152.333H170.351c-33.608 0-60.852 27.245-60.852 60.852v85.632c0 33.608 27.245 60.852 60.852 60.852h171.298c33.608 0 60.852-27.245 60.852-60.852v-85.632c0-33.607-27.245-60.852-60.852-60.852zm-41.155 107.834-80.12 38.212c-2.136 1.019-4.603-.536-4.603-2.901v-78.814c0-2.4 2.532-3.955 4.67-2.87l80.12 40.601c2.386 1.207 2.343 4.624-.067 5.772z" style="fill:#fff"/>
</svg>